# xmcd
#
# Track frame offsets: 
#        183
#        11315
#        22430
#        35633
#        47858
#        66803
#        79883
#        93358
#        112775
#        125265
#        137413
#        149738
#        163610
#        176410
#        199510
#        212255
#        224665
#        235738
#        248988
#        261680
#
# Disc length: 3645 seconds
#
# Revision: 4
# Processed by: cddbd v1.5.2PL0 Copyright (c) Steve Scherf et al.
# Submitted via: ExactAudioCopyFreeDBPlugin 1.0
#
DISCID=230e3b14
DTITLE=Various Artist - 60 Greatest Rhythm and Blues Classics
DYEAR=1990
DGENRE=Rhythm and Blues
TTITLE0=Jimmy Reed - Baby, What You Want Me To Do
TTITLE1=Howlin' Wolf - The Red Rooster
TTITLE2=Elmore James - Dust My Broom
TTITLE3=John Lee Hooker - I'm in the Mood
TTITLE4=Muddy Waters - Got My Mojo Working
TTITLE5=Tarheel Slim - Number Nine Train
TTITLE6=Lightnin' Hopkins - Mojo Hand
TTITLE7=B.B. King - Sweet Sixteen
TTITLE8=Bo Diddley - I'm a Man
TTITLE9=Ray Charles - Goin' Down Slow
TTITLE10=Little Walter - Key to the Highway
TTITLE11=Elmore James - It Hurts Me Too
TTITLE12=Muddy Waters - Hoochie Coochie Man
TTITLE13=Bobby Powell - Night Time is the Right Time
TTITLE14=Tommy Tucker - Hi Heel Sneakers
TTITLE15=Jimmy Reed - Honest I Do
TTITLE16=Lowell Fulson - Blue Shadows
TTITLE17=Laura Lee - Dirty Man
TTITLE18=Tina Turner - Rock Me Baby
TTITLE19=Wilson Pickett - If You Need Me
EXTD=
EXTT0=
EXTT1=
EXTT2=
EXTT3=
EXTT4=
EXTT5=
EXTT6=
EXTT7=
EXTT8=
EXTT9=
EXTT10=
EXTT11=
EXTT12=
EXTT13=
EXTT14=
EXTT15=
EXTT16=
EXTT17=
EXTT18=
EXTT19=
PLAYORDER=
